<svg xmlns="http://www.w3.org/2000/svg" xmlns:xlink="http://www.w3.org/1999/xlink" version="1.1" x="0px" y="0px" enable-background="new 0 0 100 100" xml:space="preserve" viewBox="5 21.81 76.33 56.38"><path d="M50.332,22.511c-1.589-1.077-3.766-0.916-5.173,0.492L32.257,35.904H11.479C7.901,35.904,5,38.805,5,42.384v15.232  c0,3.577,2.901,6.479,6.479,6.479h20.777l12.902,12.902c1.407,1.407,3.584,1.567,5.173,0.492L50.332,22.511L50.332,22.511z"/><path d="M63.334,50.334c0,6.534-3.251,12.301-8.214,15.8l3.565,3.566c5.854-4.447,9.647-11.466,9.647-19.366  c0-7.901-3.795-14.92-9.647-19.367l-3.565,3.566C60.083,38.032,63.334,43.799,63.334,50.334z"/><path d="M76.334,50.334c0,10.047-5.083,18.92-12.807,24.207l3.586,3.587c8.607-6.243,14.221-16.371,14.221-27.794  S75.721,28.782,67.113,22.54l-3.586,3.586C71.251,31.413,76.334,40.287,76.334,50.334z"/></svg>